<mxfile host="app.diagrams.net" agent="Mozilla/5.0 (X11; Linux x86_64) AppleWebKit/537.36 (KHTML, like Gecko) Chrome/137.0.0.0 Safari/537.36" version="27.0.1">
  <diagram name="Sida-1" id="R5Fo2NR1Mc5maElOUsmq">
    <mxGraphModel dx="824" dy="471" grid="1" gridSize="10" guides="1" tooltips="1" connect="1" arrows="1" fold="1" page="1" pageScale="1" pageWidth="10" pageHeight="10" math="0" shadow="0">
      <root>
        <mxCell id="0" />
        <mxCell id="1" parent="0" />
        <mxCell id="aOuX_P8dGsVJq_SoKJAz-1" value="&lt;font face=&quot;Times New Roman&quot;&gt;Atmospheric pressure above 1014hPa&lt;/font&gt;" style="rounded=1;whiteSpace=wrap;html=1;fillColor=#f5f5f5;fontColor=#333333;strokeColor=#666666;" vertex="1" parent="1">
          <mxGeometry x="170" y="200" width="130" height="50" as="geometry" />
        </mxCell>
        <mxCell id="aOuX_P8dGsVJq_SoKJAz-2" value="&lt;font face=&quot;Times New Roman&quot;&gt;Above criteria&amp;nbsp;&lt;/font&gt;&lt;div&gt;&lt;font face=&quot;Times New Roman&quot;&gt;for at least 5 days&lt;/font&gt;&lt;/div&gt;" style="rounded=1;whiteSpace=wrap;html=1;fillColor=#f5f5f5;fontColor=#333333;strokeColor=#666666;" vertex="1" parent="1">
          <mxGeometry x="330" y="280" width="130" height="50" as="geometry" />
        </mxCell>
        <mxCell id="aOuX_P8dGsVJq_SoKJAz-3" value="&lt;font face=&quot;Times New Roman&quot;&gt;Precipitation&amp;nbsp;&lt;/font&gt;&lt;div&gt;&lt;font face=&quot;Times New Roman&quot;&gt;below 0.5mmh⁻¹&lt;/font&gt;&lt;/div&gt;" style="rounded=1;whiteSpace=wrap;html=1;fillColor=#f5f5f5;fontColor=#333333;strokeColor=#666666;" vertex="1" parent="1">
          <mxGeometry x="330" y="200" width="130" height="50" as="geometry" />
        </mxCell>
        <mxCell id="aOuX_P8dGsVJq_SoKJAz-4" value="&lt;font face=&quot;Times New Roman&quot;&gt;Observed in both locations with maximum difference of 5h&lt;/font&gt;" style="rounded=1;whiteSpace=wrap;html=1;fillColor=#f5f5f5;fontColor=#333333;strokeColor=#666666;" vertex="1" parent="1">
          <mxGeometry x="490" y="200" width="130" height="50" as="geometry" />
        </mxCell>
        <mxCell id="aOuX_P8dGsVJq_SoKJAz-5" value="&lt;font face=&quot;Times New Roman&quot;&gt;High -pressure blocking&amp;nbsp;&lt;/font&gt;" style="rounded=1;whiteSpace=wrap;html=1;fillColor=#fff2cc;strokeColor=#d6b656;" vertex="1" parent="1">
          <mxGeometry x="330" y="360" width="130" height="50" as="geometry" />
        </mxCell>
        <mxCell id="aOuX_P8dGsVJq_SoKJAz-7" value="" style="endArrow=classic;html=1;rounded=0;exitX=0.5;exitY=1;exitDx=0;exitDy=0;entryX=0.5;entryY=0;entryDx=0;entryDy=0;" edge="1" parent="1" source="aOuX_P8dGsVJq_SoKJAz-2" target="aOuX_P8dGsVJq_SoKJAz-5">
          <mxGeometry width="50" height="50" relative="1" as="geometry">
            <mxPoint x="380" y="320" as="sourcePoint" />
            <mxPoint x="430" y="270" as="targetPoint" />
          </mxGeometry>
        </mxCell>
        <mxCell id="aOuX_P8dGsVJq_SoKJAz-8" value="" style="endArrow=classic;html=1;rounded=0;exitX=1;exitY=0.5;exitDx=0;exitDy=0;entryX=0;entryY=0.5;entryDx=0;entryDy=0;" edge="1" parent="1" source="aOuX_P8dGsVJq_SoKJAz-3" target="aOuX_P8dGsVJq_SoKJAz-4">
          <mxGeometry width="50" height="50" relative="1" as="geometry">
            <mxPoint x="410" y="340" as="sourcePoint" />
            <mxPoint x="395" y="280" as="targetPoint" />
          </mxGeometry>
        </mxCell>
        <mxCell id="aOuX_P8dGsVJq_SoKJAz-11" value="" style="endArrow=classic;html=1;rounded=1;exitX=0.5;exitY=1;exitDx=0;exitDy=0;entryX=0;entryY=0.5;entryDx=0;entryDy=0;curved=0;" edge="1" parent="1" source="aOuX_P8dGsVJq_SoKJAz-1" target="aOuX_P8dGsVJq_SoKJAz-2">
          <mxGeometry width="50" height="50" relative="1" as="geometry">
            <mxPoint x="380" y="320" as="sourcePoint" />
            <mxPoint x="430" y="270" as="targetPoint" />
            <Array as="points">
              <mxPoint x="235" y="305" />
            </Array>
          </mxGeometry>
        </mxCell>
        <mxCell id="aOuX_P8dGsVJq_SoKJAz-12" value="" style="endArrow=classic;html=1;rounded=1;exitX=0.5;exitY=1;exitDx=0;exitDy=0;entryX=1;entryY=0.5;entryDx=0;entryDy=0;curved=0;" edge="1" parent="1" source="aOuX_P8dGsVJq_SoKJAz-4" target="aOuX_P8dGsVJq_SoKJAz-2">
          <mxGeometry width="50" height="50" relative="1" as="geometry">
            <mxPoint x="550" y="250" as="sourcePoint" />
            <mxPoint x="645" y="305" as="targetPoint" />
            <Array as="points">
              <mxPoint x="555" y="305" />
            </Array>
          </mxGeometry>
        </mxCell>
      </root>
    </mxGraphModel>
  </diagram>
</mxfile>
